# xmcd
#
# Track frame offsets: 
#        150
#        13275
#        26137
#        42050
#        52002
#        67022
#        80530
#        93300
#        105895
#        117497
#        130782
#        146712
#        156422
#        174165
#        185427
#        200992
#        215237
#        230102
#        242217
#        256562
#
# Disc length: 3624 seconds
#
# Revision: 1
# Processed by: cddbd v1.4PL0 Copyright (c) Steve Scherf et al.
# Submitted via: ExactAudioCopy v0.90b3
#
DISCID=270e2614
DTITLE=Charly McClain - Portfolio
DYEAR=1900
DGENRE=Country
TTITLE0=Let Me Be Your Baby
TTITLE1=Sleepin' With The Radio On
TTITLE2=Take Me Back
TTITLE3=That's What You Do To Me
TTITLE4=I Hate The Way I Love It (With Johnny Rodriguez)
TTITLE5=Paradise Tonight
TTITLE6=When A Love Ain't Right
TTITLE7=The Very Best Is You
TTITLE8=Let's Put Our Love In Motion
TTITLE9=With You
TTITLE10=Sentimental Ol' You
TTITLE11=Who's Cheatin' Who
TTITLE12=Surround Me With Love
TTITLE13=Men
TTITLE14=Dancing Your Memory Away
TTITLE15=Radio Heart
TTITLE16=With Just One Look In Your Eyes (With Wayne Massey)
TTITLE17=Women Get Lonely
TTITLE18=Fly Into Love
TTITLE19=Don't Touch Me There
EXTD=
EXTT0=
EXTT1=
EXTT2=
EXTT3=
EXTT4=
EXTT5=
EXTT6=
EXTT7=
EXTT8=
EXTT9=
EXTT10=
EXTT11=
EXTT12=
EXTT13=
EXTT14=
EXTT15=
EXTT16=
EXTT17=
EXTT18=
EXTT19=
PLAYORDER=
